<svg xmlns="http://www.w3.org/2000/svg" width="203" height="44" viewBox="0 0 203 44" fill="none"><g clip-path="url(#clip0_1318_429)"><path d="M51.6303 36.2546C50.2124 36.2827 48.8037 36.0197 47.4854 35.4814C46.3451 35.0064 45.3109 34.2963 44.4467 33.3946C43.6281 32.5398 42.9868 31.5229 42.5613 30.4052C42.1389 29.2785 41.9256 28.08 41.9328 26.8723V26.167C41.9265 24.9422 42.1484 23.7275 42.5864 22.5887C43.0292 21.4282 43.7001 20.3744 44.557 19.4936C45.4143 18.6128 46.439 17.924 47.5671 17.4705C50.1829 16.461 53.0651 16.461 55.6809 17.4705C56.8269 17.9404 57.8658 18.6498 58.7321 19.554C59.563 20.4225 60.2147 21.4547 60.649 22.5887C61.0871 23.7275 61.3089 24.9422 61.3026 26.167V26.8723C61.3026 28.0839 61.0808 29.2846 60.649 30.4117C60.2235 31.5293 59.5822 32.5463 58.7636 33.4011C57.9 34.3021 56.8671 35.0119 55.728 35.4878C54.4245 36.0191 53.0318 36.2798 51.6303 36.2546ZM51.6303 32.2526C52.6069 32.2832 53.5714 32.0201 54.405 31.4955C55.1646 30.9949 55.7707 30.2825 56.1522 29.4411C56.5548 28.5127 56.7612 27.507 56.7587 26.4904C56.7559 25.4738 56.5438 24.4693 56.1365 23.5432C55.7465 22.6969 55.1322 21.9814 54.3642 21.479C53.5412 20.9565 52.5875 20.6934 51.6209 20.722C50.6495 20.6956 49.6914 20.9585 48.8618 21.479C48.09 21.9801 47.4732 22.6972 47.0832 23.5464C46.6778 24.4728 46.4676 25.477 46.4667 26.4931C46.4654 27.5091 46.6734 28.5138 47.0769 29.4411C47.459 30.2813 48.0649 30.9926 48.8241 31.4923C49.6678 32.0213 50.6429 32.2855 51.6303 32.2526Z" fill="white"></path><path d="M62.9932 20.7898V17.3604H75.5345V20.7898H62.9932ZM72.986 35.8501C71.6031 35.899 70.2239 35.6796 68.9198 35.2031C67.8928 34.7941 67.0535 34.0018 66.5692 32.9837C66.058 31.9419 65.8025 30.5399 65.8025 28.7778V12.2163H70.0762L70.0447 29.0592C70.0033 29.4359 70.0447 29.8173 70.166 30.1751C70.2873 30.533 70.4856 30.858 70.7461 31.126C71.0063 31.3941 71.3221 31.5982 71.6697 31.7232C72.0172 31.8482 72.3877 31.8909 72.7535 31.8481H75.5314V35.8501H72.986Z" fill="white"></path><path d="M77.7217 20.8545V17.3604H84.7418V20.8545H77.7217ZM81.8665 15.1734C80.9741 15.1734 80.3173 14.9404 79.8931 14.4681C79.4585 13.9597 79.2332 13.2971 79.2646 12.6207C79.2385 11.9539 79.4638 11.3025 79.8931 10.8025C80.312 10.3344 80.97 10.0994 81.8665 10.0972C82.7631 10.095 83.4167 10.3301 83.8274 10.8025C84.2541 11.304 84.4791 11.9543 84.4559 12.6207C84.4826 13.2964 84.2576 13.9571 83.8274 14.4681C83.4126 14.9404 82.759 15.1734 81.8665 15.1734ZM80.201 35.6139V17.3604H84.7418V35.6139H80.201Z" fill="white"></path><path d="M97.8016 36.2546C96.4346 36.286 95.0771 36.0158 93.8202 35.4619C92.736 34.976 91.7748 34.2396 91.0108 33.3105C90.2758 32.413 89.7108 31.3814 89.3454 30.2693C88.9786 29.1697 88.7907 28.0154 88.7891 26.8528V26.2058C88.7844 24.9949 88.9777 23.7918 89.3611 22.647C89.7312 21.5344 90.3088 20.5068 91.0611 19.622C91.8385 18.7169 92.7954 17.9943 93.8673 17.5028C95.1529 16.9595 96.5324 16.6914 97.922 16.7148C99.3115 16.7381 100.682 17.0525 101.95 17.6387C103.127 18.2228 104.135 19.1154 104.872 20.227C105.614 21.3651 106.038 22.6914 106.098 24.0608H101.654C101.559 23.1654 101.154 22.3352 100.513 21.7217C99.8599 21.0746 98.9454 20.7511 97.7702 20.7511C96.8922 20.721 96.028 20.9806 95.3034 21.492C94.6246 22.0044 94.1083 22.7126 93.8202 23.527C93.4779 24.4789 93.3114 25.4885 93.3299 26.5034C93.3183 27.4951 93.4779 28.481 93.8013 29.4152C94.0744 30.2706 94.6149 31.0087 95.3389 31.5139C96.0626 32.0191 96.929 32.263 97.8016 32.2073C98.5115 32.2283 99.216 32.0787 99.8599 31.7705C100.407 31.4959 100.875 31.0774 101.214 30.5573C101.556 30.0369 101.763 29.4357 101.818 28.8102H106.261C106.203 30.1998 105.767 31.5448 105.004 32.6925C104.245 33.8087 103.222 34.7062 102.031 35.3002C100.712 35.9517 99.2644 36.2785 97.8016 36.2546Z" fill="white"></path><path d="M117.818 36.2546C116.444 36.2844 115.079 36.0088 113.818 35.4458C112.731 34.9476 111.765 34.207 110.99 33.2782C110.246 32.3817 109.67 31.3505 109.293 30.237C108.914 29.1357 108.721 27.9759 108.721 26.8076V26.1606C108.714 24.9653 108.903 23.7773 109.28 22.647C109.649 21.5378 110.219 20.5111 110.961 19.622C111.732 18.7165 112.685 17.9954 113.755 17.5094C114.976 16.9633 116.296 16.6941 117.627 16.72C119.539 16.72 121.144 17.1513 122.441 18.0141C123.705 18.8423 124.717 20.0193 125.363 21.4111C126.02 22.8245 126.356 24.3736 126.344 25.9406V27.6553H110.631V24.7564H123.465L122.092 26.167C122.116 25.1449 121.945 24.1279 121.586 23.1744C121.288 22.3968 120.77 21.7295 120.1 21.2591C119.356 20.7863 118.493 20.552 117.62 20.5861C116.719 20.5573 115.831 20.81 115.072 21.3109C114.364 21.8128 113.817 22.52 113.501 23.3426C113.119 24.3489 112.936 25.4236 112.963 26.5035C112.945 27.5435 113.122 28.5773 113.485 29.5479C113.804 30.3914 114.361 31.1171 115.084 31.6314C115.903 32.1647 116.86 32.4289 117.828 32.3885C118.762 32.4286 119.688 32.1916 120.496 31.7059C121.13 31.3286 121.606 30.7238 121.834 30.0073H126.048C125.808 31.2128 125.292 32.3418 124.543 33.3008C123.786 34.2549 122.816 35.0052 121.715 35.4879C120.481 36.0181 119.155 36.2792 117.818 36.2546Z" fill="white"></path><path d="M130.488 35.7824V10.9062H135.026V35.7824H130.488ZM134.372 24.3198V21.408H139.466C140.579 21.408 141.392 21.1039 141.917 20.4989C142.46 19.8325 142.74 18.9801 142.7 18.1112C142.746 17.2218 142.467 16.3467 141.917 15.6589C141.392 15.0539 140.579 14.7498 139.466 14.7498H134.372V10.9062H139.042C141.74 10.9062 143.792 11.4886 145.198 12.6533C146.604 13.818 147.306 15.4874 147.303 17.6615V18.1663C147.303 19.6911 146.949 20.9076 146.241 21.8157C145.486 22.7586 144.464 23.4368 143.319 23.7568C141.928 24.1597 140.487 24.3526 139.042 24.3295L134.372 24.3198ZM134.372 35.7824V31.9518H140.343C141.408 31.9518 142.228 31.6283 142.807 31.0265C143.107 30.683 143.338 30.2817 143.487 29.8459C143.636 29.41 143.699 28.9481 143.674 28.4868C143.674 27.4084 143.391 26.5737 142.825 25.9827C142.26 25.3917 141.432 25.0951 140.343 25.093H134.372V22.1812H140.029C141.469 22.1592 142.906 22.3577 144.29 22.7701C145.443 23.0952 146.47 23.7814 147.228 24.7339C147.935 25.656 148.29 26.8854 148.29 28.4318V28.8913C148.325 30.1963 147.998 31.4847 147.347 32.6054C146.679 33.6659 145.709 34.4883 144.569 34.9607C143.121 35.5495 141.572 35.829 140.016 35.7824H134.372Z" fill="white"></path><path d="M157.589 36.0865C156.43 36.1137 155.281 35.8714 154.226 35.378C153.307 34.9428 152.53 34.2427 151.989 33.3624C151.436 32.4086 151.158 31.3119 151.191 30.2015C151.139 29.0261 151.471 27.8667 152.133 26.908C152.832 26.0076 153.775 25.3411 154.842 24.9927C156.169 24.539 157.561 24.3202 158.959 24.3456H163.044V27.1765H158.896C157.85 27.1765 157.051 27.4353 156.495 27.9497C156.232 28.2111 156.022 28.5244 155.879 28.871C155.736 29.2176 155.662 29.5904 155.662 29.9669C155.662 30.3435 155.736 30.7163 155.879 31.0629C156.022 31.4095 156.232 31.7228 156.495 31.9841C157.051 32.4986 157.85 32.7574 158.896 32.7574C159.496 32.7642 160.09 32.6441 160.643 32.4047C161.195 32.1517 161.657 31.729 161.966 31.1947C162.35 30.4785 162.552 29.6739 162.554 28.8556L163.663 30.1691C163.597 31.3022 163.29 32.4067 162.764 33.4044C162.294 34.2615 161.591 34.9577 160.741 35.4071C159.758 35.8891 158.677 36.1221 157.589 36.0865ZM163.305 35.6141V30.2015H162.554V24.1839C162.554 23.155 162.303 22.3764 161.803 21.848C161.3 21.3206 160.546 21.0586 159.515 21.0586C158.97 21.0586 158.318 21.0693 157.557 21.0909C156.797 21.1125 156.029 21.1405 155.254 21.175C154.481 21.2117 153.79 21.2505 153.18 21.2915V17.325C153.683 17.283 154.242 17.2377 154.864 17.1924C155.486 17.1471 156.121 17.118 156.806 17.1083C157.491 17.0986 158.113 17.0921 158.692 17.0921C160.241 17.0447 161.785 17.2949 163.245 17.8297C164.389 18.2675 165.356 19.0907 165.988 20.1656C166.617 21.2333 166.931 22.6147 166.931 24.3197V35.6141H163.305Z" fill="white"></path><path d="M171.793 35.6142V17.3607H175.385V25.093H175.287C175.287 22.4919 175.832 20.514 176.921 19.1595C178.011 17.805 179.61 17.1267 181.72 17.1245H182.373V21.1913H181.117C179.593 21.1913 178.413 21.6227 177.575 22.4854C176.737 23.3481 176.318 24.57 176.318 26.151V35.6304L171.793 35.6142Z" fill="white"></path><path d="M192.63 36.2351C191.443 36.2529 190.265 36.0125 189.174 35.5298C188.154 35.0701 187.237 34.4007 186.478 33.5627C185.704 32.7009 185.105 31.689 184.715 30.5863C184.292 29.4022 184.079 28.1497 184.086 26.8883V26.1669C184.077 24.9205 184.276 23.6817 184.674 22.5045C185.043 21.4017 185.619 20.3847 186.371 19.5119C187.109 18.6633 188.01 17.9815 189.017 17.5092C190.095 17.0166 191.265 16.7705 192.445 16.7877C193.732 16.7602 195.004 17.0791 196.134 17.713C197.221 18.3595 198.096 19.3248 198.648 20.4857C199.277 21.7172 199.62 23.2637 199.679 25.1251L198.34 23.5463V11.0742H202.912V35.6139H199.321V27.8816H200.103C200.096 29.4916 199.716 31.0766 198.994 32.5048C198.385 33.6786 197.462 34.6469 196.332 35.2936C195.196 35.9261 193.922 36.25 192.63 36.2351ZM193.642 32.301C194.497 32.3094 195.339 32.0898 196.087 31.6636C196.827 31.2386 197.437 30.6102 197.85 29.8486C198.312 28.9905 198.543 28.0211 198.519 27.0404V25.6977C198.548 24.7512 198.31 23.8163 197.834 23.006C197.396 22.2847 196.776 21.6989 196.04 21.3107C195.302 20.9196 194.484 20.7177 193.655 20.7219C192.739 20.7036 191.837 20.9599 191.059 21.4595C190.303 21.9607 189.694 22.6642 189.296 23.4945C188.856 24.4429 188.641 25.4851 188.668 26.5357C188.643 27.59 188.867 28.6349 189.321 29.5801C189.719 30.4105 190.34 31.1064 191.109 31.5856C191.878 32.0649 192.765 32.3075 193.664 32.2848L193.642 32.301Z" fill="white"></path><path d="M34.1046 4.92088H24.2154C24.2154 2.20324 21.5507 0 18.9111 0C16.2714 0 13.6098 2.20324 13.6098 4.92088H3.72062C2.73631 4.92001 1.79185 5.32109 1.09437 6.03615C0.39689 6.75122 0.00332782 7.7219 0 8.73529V40.0206C-1.7451e-07 40.5234 0.0962594 41.0216 0.283276 41.4859C0.470294 41.9504 0.7444 42.3727 1.08993 42.7282C1.43547 43.0834 1.84565 43.3652 2.29704 43.5574C2.74843 43.7496 3.23216 43.8483 3.72062 43.8479H34.1046C34.593 43.8483 35.0769 43.7496 35.5281 43.5574C35.9797 43.3652 36.3898 43.0834 36.7355 42.7282C37.0808 42.3727 37.3548 41.9504 37.5421 41.4859C37.7291 41.0216 37.8252 40.5234 37.8252 40.0206V8.73529C37.8218 7.7219 37.4284 6.75122 36.7307 6.03615C36.0334 5.32109 35.0888 4.92001 34.1046 4.92088ZM18.9111 7.50912C18.4138 7.50912 17.9278 7.35732 17.5144 7.07294C17.101 6.78852 16.7788 6.3843 16.5885 5.91137C16.3982 5.43843 16.3484 4.918 16.4454 4.41595C16.5424 3.91386 16.7818 3.45271 17.1334 3.09073C17.485 2.72875 17.9329 2.48225 18.4206 2.38238C18.9083 2.28251 19.4137 2.33377 19.8731 2.52966C20.3325 2.72556 20.7251 3.0573 21.0013 3.48292C21.2775 3.90856 21.425 4.40896 21.425 4.92088C21.4233 5.60622 21.1577 6.26288 20.6865 6.74685C20.2152 7.23085 19.5767 7.50265 18.9111 7.50265V7.50912Z" fill="#5627FF"></path><path d="M7.61426 37.494V12.7764H15.2786L25.3343 33.4984H26.453L25.7931 34.1099V12.7764H30.1925V37.494H22.481L12.4253 16.7881H11.3129L11.9571 16.1767V37.5102L7.61426 37.494Z" fill="white"></path></g><defs><clipPath id="clip0_1318_429"><rect width="203" height="44" fill="white"></rect></clipPath></defs></svg>